<?xml version="1.0" encoding="iso-8859-1"?>
<!-- Generator: Adobe Illustrator 19.0.0, SVG Export Plug-In . SVG Version: 6.00 Build 0)  -->
<svg version="1.1" id="Capa_1" xmlns="http://www.w3.org/2000/svg" xmlns:xlink="http://www.w3.org/1999/xlink" x="0px" y="0px"
	 viewBox="0 0 512.001 512.001" style="enable-background:new 0 0 512.001 512.001;" xml:space="preserve">
<path style="fill:#F9EAB0;" d="M475.733,503.467H36.267c-15.317,0-27.733-12.416-27.733-27.733v-364.8h494.933v364.8
	C503.467,491.052,491.051,503.467,475.733,503.467z"/>
<path style="fill:#8697CB;" d="M503.467,110.934H8.533V70.401c0-15.317,12.416-27.733,27.733-27.733h439.467
	c15.317,0,27.733,12.416,27.733,27.733v40.533H503.467z"/>
<g>
	<rect x="170.67" y="162.131" style="fill:#FFFFFF;" width="68.27" height="68.27"/>
	<rect x="281.6" y="162.131" style="fill:#FFFFFF;" width="68.27" height="68.27"/>
	<rect x="392.53" y="162.131" style="fill:#FFFFFF;" width="68.27" height="68.27"/>
	<rect x="59.733" y="273.071" style="fill:#FFFFFF;" width="68.27" height="68.27"/>
	<rect x="170.67" y="273.071" style="fill:#FFFFFF;" width="68.27" height="68.27"/>
	<rect x="392.53" y="273.071" style="fill:#FFFFFF;" width="68.27" height="68.27"/>
	<rect x="59.733" y="384.001" style="fill:#FFFFFF;" width="68.27" height="68.27"/>
	<rect x="281.6" y="384.001" style="fill:#FFFFFF;" width="68.27" height="68.27"/>
	<rect x="392.53" y="384.001" style="fill:#FFFFFF;" width="68.27" height="68.27"/>
</g>
<g>
	<path style="fill:#E64C3C;" d="M59.733,238.934c-2.185,0-4.369-0.836-6.033-2.5c-3.337-3.337-3.337-8.73,0-12.066l68.267-68.267
		c3.328-3.337,8.738-3.337,12.066,0c3.337,3.337,3.337,8.73,0,12.066l-68.267,68.267C64.102,238.098,61.918,238.934,59.733,238.934z
		"/>
	<path style="fill:#E64C3C;" d="M128,238.934c-2.185,0-4.369-0.836-6.033-2.5L53.7,168.167c-3.337-3.337-3.337-8.73,0-12.066
		c3.328-3.337,8.738-3.337,12.066,0l68.267,68.267c3.337,3.337,3.337,8.73,0,12.066C132.369,238.098,130.185,238.934,128,238.934z"
		/>
	<path style="fill:#E64C3C;" d="M170.667,460.801c-2.185,0-4.369-0.836-6.033-2.5c-3.337-3.336-3.337-8.73,0-12.066l68.267-68.267
		c3.328-3.336,8.738-3.336,12.066,0c3.337,3.337,3.337,8.73,0,12.066L176.7,458.301
		C175.036,459.965,172.851,460.801,170.667,460.801z"/>
	<path style="fill:#E64C3C;" d="M238.933,460.801c-2.185,0-4.369-0.836-6.033-2.5l-68.267-68.267c-3.337-3.336-3.337-8.73,0-12.066
		c3.328-3.336,8.738-3.336,12.066,0l68.267,68.267c3.337,3.336,3.337,8.73,0,12.066
		C243.302,459.965,241.118,460.801,238.933,460.801z"/>
	<path style="fill:#E64C3C;" d="M281.6,349.868c-2.185,0-4.369-0.836-6.033-2.5c-3.337-3.337-3.337-8.73,0-12.066l68.267-68.267
		c3.328-3.337,8.738-3.337,12.066,0c3.337,3.337,3.337,8.73,0,12.066l-68.267,68.267C285.969,349.031,283.785,349.868,281.6,349.868
		z"/>
	<path style="fill:#E64C3C;" d="M349.867,349.868c-2.185,0-4.369-0.836-6.033-2.5l-68.267-68.267c-3.337-3.337-3.337-8.73,0-12.066
		c3.328-3.337,8.738-3.337,12.066,0l68.267,68.266c3.337,3.337,3.337,8.73,0,12.066
		C354.236,349.031,352.051,349.868,349.867,349.868z"/>
</g>
<g>
	<path style="fill:#611C90;" d="M475.733,512H36.267C16.273,512,0,495.737,0,475.733v-364.8c0-4.71,3.823-8.533,8.533-8.533h494.933
		c4.719,0,8.533,3.823,8.533,8.533v364.8C512,495.737,495.736,512,475.733,512z M17.067,119.468v356.267
		c0,10.581,8.61,19.2,19.2,19.2h439.467c10.581,0,19.2-8.619,19.2-19.2V119.468H17.067z"/>
	<path style="fill:#611C90;" d="M503.467,119.468H8.533c-4.71,0-8.533-3.823-8.533-8.533V70.401
		c0-19.994,16.273-36.267,36.267-36.267h439.467c20.002,0,36.267,16.273,36.267,36.267v40.533
		C512,115.645,508.186,119.468,503.467,119.468z M17.067,102.401h477.867v-32c0-10.59-8.619-19.2-19.2-19.2H36.267
		c-10.59,0-19.2,8.61-19.2,19.2V102.401z"/>
	<path style="fill:#611C90;" d="M93.867,85.334c-4.71,0-8.533-3.823-8.533-8.533s3.823-8.533,8.533-8.533
		c14.114,0,25.6-11.486,25.6-25.6s-11.486-25.6-25.6-25.6s-25.6,11.486-25.6,25.6c0,4.71-3.823,8.533-8.533,8.533
		c-4.71,0-8.534-3.823-8.534-8.533c0-23.527,19.14-42.667,42.667-42.667s42.667,19.14,42.667,42.667S117.393,85.334,93.867,85.334z"
		/>
	<path style="fill:#611C90;" d="M204.8,85.334c-4.71,0-8.533-3.823-8.533-8.533s3.823-8.533,8.533-8.533
		c14.114,0,25.6-11.486,25.6-25.6s-11.486-25.6-25.6-25.6s-25.6,11.486-25.6,25.6c0,4.71-3.823,8.533-8.533,8.533
		c-4.71,0-8.533-3.823-8.533-8.533C162.134,19.141,181.274,0,204.801,0s42.667,19.14,42.667,42.667S228.326,85.334,204.8,85.334z"/>
	<path style="fill:#611C90;" d="M315.733,85.334c-4.719,0-8.533-3.823-8.533-8.533s3.814-8.533,8.533-8.533
		c14.114,0,25.6-11.486,25.6-25.6s-11.486-25.6-25.6-25.6c-14.114,0-25.6,11.486-25.6,25.6c0,4.71-3.814,8.533-8.533,8.533
		c-4.719,0-8.533-3.823-8.533-8.533C273.067,19.141,292.207,0,315.734,0c23.526,0,42.667,19.14,42.667,42.667
		S339.26,85.334,315.733,85.334z"/>
	<path style="fill:#611C90;" d="M418.133,85.334c-4.719,0-8.533-3.823-8.533-8.533s3.814-8.533,8.533-8.533
		c14.114,0,25.6-11.486,25.6-25.6s-11.486-25.6-25.6-25.6s-25.6,11.486-25.6,25.6c0,4.71-3.814,8.533-8.533,8.533
		s-8.533-3.823-8.533-8.533C375.467,19.141,394.607,0,418.134,0s42.667,19.14,42.667,42.667S441.66,85.334,418.133,85.334z"/>
	<path style="fill:#611C90;" d="M238.933,238.934h-68.267c-4.71,0-8.533-3.823-8.533-8.533v-68.267c0-4.71,3.823-8.533,8.533-8.533
		h68.267c4.71,0,8.533,3.823,8.533,8.533v68.267C247.467,235.111,243.644,238.934,238.933,238.934z M179.2,221.868h51.2v-51.2h-51.2
		V221.868z"/>
	<path style="fill:#611C90;" d="M349.867,238.934H281.6c-4.719,0-8.533-3.823-8.533-8.533v-68.267c0-4.71,3.814-8.533,8.533-8.533
		h68.267c4.719,0,8.533,3.823,8.533,8.533v68.267C358.4,235.111,354.586,238.934,349.867,238.934z M290.133,221.868h51.2v-51.2
		h-51.2V221.868L290.133,221.868z"/>
	<path style="fill:#611C90;" d="M460.8,238.934h-68.267c-4.719,0-8.533-3.823-8.533-8.533v-68.267c0-4.71,3.814-8.533,8.533-8.533
		H460.8c4.719,0,8.533,3.823,8.533,8.533v68.267C469.333,235.111,465.519,238.934,460.8,238.934z M401.067,221.868h51.2v-51.2h-51.2
		V221.868z"/>
	<path style="fill:#611C90;" d="M128,349.868H59.733c-4.71,0-8.533-3.814-8.533-8.533v-68.267c0-4.719,3.823-8.533,8.533-8.533H128
		c4.71,0,8.533,3.814,8.533,8.533v68.267C136.533,346.053,132.71,349.868,128,349.868z M68.267,332.801h51.2v-51.2h-51.2
		C68.267,281.6,68.267,332.801,68.267,332.801z"/>
	<path style="fill:#611C90;" d="M238.933,349.868h-68.267c-4.71,0-8.533-3.814-8.533-8.533v-68.267c0-4.719,3.823-8.533,8.533-8.533
		h68.267c4.71,0,8.533,3.814,8.533,8.533v68.267C247.467,346.053,243.644,349.868,238.933,349.868z M179.2,332.801h51.2v-51.2h-51.2
		V332.801z"/>
	<path style="fill:#611C90;" d="M460.8,349.868h-68.267c-4.719,0-8.533-3.814-8.533-8.533v-68.267c0-4.719,3.814-8.533,8.533-8.533
		H460.8c4.719,0,8.533,3.814,8.533,8.533v68.267C469.333,346.053,465.519,349.868,460.8,349.868z M401.067,332.801h51.2v-51.2h-51.2
		V332.801z"/>
	<path style="fill:#611C90;" d="M128,460.801H59.733c-4.71,0-8.533-3.814-8.533-8.533v-68.267c0-4.719,3.823-8.533,8.533-8.533H128
		c4.71,0,8.533,3.814,8.533,8.533v68.267C136.533,456.987,132.71,460.801,128,460.801z M68.267,443.733h51.2v-51.2h-51.2
		C68.267,392.533,68.267,443.733,68.267,443.733z"/>
	<path style="fill:#611C90;" d="M349.867,460.801H281.6c-4.719,0-8.533-3.814-8.533-8.533v-68.267c0-4.719,3.814-8.533,8.533-8.533
		h68.267c4.719,0,8.533,3.814,8.533,8.533v68.267C358.4,456.987,354.586,460.801,349.867,460.801z M290.133,443.733h51.2v-51.2
		h-51.2V443.733L290.133,443.733z"/>
	<path style="fill:#611C90;" d="M460.8,460.801h-68.267c-4.719,0-8.533-3.814-8.533-8.533v-68.267c0-4.719,3.814-8.533,8.533-8.533
		H460.8c4.719,0,8.533,3.814,8.533,8.533v68.267C469.333,456.987,465.519,460.801,460.8,460.801z M401.067,443.733h51.2v-51.2h-51.2
		V443.733z"/>
	<path style="fill:#611C90;" d="M105.933,196.268l28.1-28.1c3.337-3.337,3.337-8.73,0-12.066c-3.337-3.336-8.73-3.337-12.066,0
		l-28.1,28.1l-28.1-28.1c-3.337-3.337-8.73-3.337-12.066,0s-3.336,8.73,0,12.066l28.1,28.1l-28.1,28.1
		c-3.336,3.337-3.336,8.73,0,12.066c1.664,1.664,3.849,2.5,6.033,2.5c2.184,0,4.369-0.836,6.033-2.5l28.1-28.1l28.1,28.1
		c1.664,1.664,3.849,2.5,6.033,2.5s4.369-0.836,6.033-2.5c3.337-3.337,3.337-8.73,0-12.066L105.933,196.268z"/>
	<path style="fill:#611C90;" d="M216.866,418.134l28.1-28.1c3.336-3.337,3.336-8.73,0-12.066c-3.337-3.336-8.73-3.336-12.066,0
		l-28.1,28.1l-28.1-28.1c-3.336-3.336-8.73-3.337-12.066,0c-3.337,3.337-3.337,8.73,0,12.066l28.1,28.1l-28.1,28.1
		c-3.337,3.337-3.337,8.73,0,12.066c1.664,1.664,3.849,2.5,6.033,2.5c2.185,0,4.369-0.836,6.033-2.5l28.1-28.1l28.1,28.1
		c1.664,1.664,3.849,2.5,6.033,2.5c2.185,0,4.369-0.836,6.033-2.5c3.336-3.337,3.336-8.73,0-12.066L216.866,418.134z"/>
	<path style="fill:#611C90;" d="M327.799,307.201l28.1-28.1c3.336-3.337,3.337-8.73,0-12.066c-3.337-3.337-8.73-3.337-12.066,0
		l-28.1,28.1l-28.1-28.1c-3.337-3.337-8.73-3.337-12.066,0c-3.337,3.336-3.337,8.73,0,12.066l28.1,28.1l-28.1,28.1
		c-3.337,3.337-3.337,8.73,0,12.066c1.664,1.664,3.849,2.5,6.033,2.5c2.185,0,4.369-0.836,6.033-2.5l28.1-28.1l28.1,28.1
		c1.664,1.664,3.849,2.5,6.033,2.5c2.185,0,4.369-0.836,6.033-2.5c3.336-3.337,3.336-8.73,0-12.066L327.799,307.201z"/>
</g>
<g>
</g>
<g>
</g>
<g>
</g>
<g>
</g>
<g>
</g>
<g>
</g>
<g>
</g>
<g>
</g>
<g>
</g>
<g>
</g>
<g>
</g>
<g>
</g>
<g>
</g>
<g>
</g>
<g>
</g>
</svg>
