<svg height="436pt" viewBox="-24 0 436 436" width="436pt" xmlns="http://www.w3.org/2000/svg"><path d="m252.21875 307.179688h53.453125c41.015625-.003907 74.269531 33.242187 74.269531 74.261718v46.527344h-187.492187v-83.679688l59.621093-37.109374zm0 0" fill="#00acea"/><path d="m370.191406 275h-117.972656v-24.050781l-.1875-.289063c6.839844-4.457031 13.160156-9.664062 18.847656-15.519531 10.03125-10.296875 17.996094-22.417969 23.472656-35.710937l.21875.089843s17.539063 65.480469 75.621094 75.480469zm0 0" fill="#4b5d63"/><path d="m318.441406 125.921875c6.496094 6.5 8.453125 16.265625 4.960938 24.769531-3.492188 8.5-11.75 14.074219-20.941406 14.128906.179687-2.519531.269531-5.058593.269531-7.621093v-37.9375c5.902343.089843 11.539062 2.480469 15.710937 6.660156zm0 0" fill="#edb288"/><path d="m302.730469 98.339844h-231.96875v-69.058594c-.003907-11.738281 9.511719-21.253906 21.25-21.25h201.859375c11.734375 0 21.25 9.511719 21.25 21.25v69.058594zm0 0" fill="#00efd1"/><path d="m85.539062 164.820312c-.179687-2.519531-.269531-5.058593-.269531-7.621093v-58.859375h217.460938v58.859375c0 2.5625-.089844 5.101562-.269531 7.621093-.039063.75-.101563 1.488282-.179688 2.230469l-87.980469 25.75c-13.257812 3.878907-27.34375 3.878907-40.601562 0l-87.980469-25.75c-.078125-.742187-.140625-1.480469-.179688-2.230469zm0 0" fill="#f7caa5"/><path d="m135.78125 250.539062c-18.871094-12.417968-33.558594-30.242187-42.140625-51.140624-4.261719-10.320313-6.933594-21.226563-7.921875-32.347657l87.980469 25.75c13.257812 3.878907 27.34375 3.878907 40.601562 0l87.980469-25.75c-.988281 11.132813-3.660156 22.050781-7.929688 32.378907-5.476562 13.292968-13.441406 25.414062-23.472656 35.710937-5.6875 5.855469-12.007812 11.0625-18.847656 15.519531-35.28125 23.230469-81.019531 23.183594-116.25-.121094zm0 0" fill="#d4e1f4"/><path d="m135.78125 275v-24.460938c35.230469 23.304688 80.96875 23.351563 116.25.121094l.1875.289063v56.230469h-.148438l-59.621093 37.109374-56.667969-37.019531zm0 0" fill="#edb288"/><path d="m135.78125 307.269531 56.667969 37.019531v83.679688h-184.390625v-46.527344c0-41.019531 33.253906-74.265625 74.269531-74.261718h53.3125zm0 0" fill="#00acea"/><path d="m135.78125 250.539062v24.460938h-118.152344c58.089844-10 75.722656-75.480469 75.722656-75.480469l.289063-.121093c8.582031 20.898437 23.269531 38.722656 42.140625 51.140624zm0 0" fill="#4b5d63"/><path d="m85.269531 157.199219c0 2.5625.089844 5.101562.269531 7.621093-12.527343-.058593-23.730468-10.242187-23.730468-22.78125.066406-6.140624 2.679687-11.976562 7.210937-16.117187 4.410157-4.152344 10.195313-6.523437 16.25-6.660156zm0 0" fill="#edb288"/><g fill="#083863"><path d="m305.671875 299h-45.671875v-16h110.191406c4.152344 0 7.617188-3.179688 7.96875-7.320312.355469-4.136719-2.519531-7.859376-6.613281-8.5625-46.738281-8.046876-65.15625-57.023438-68.625-67.644532 3.394531-8.882812 5.707031-18.144531 6.882813-27.578125 13.675781-3.457031 23.269531-15.746093 23.304687-29.855469.070313-8.152343-3.128906-15.996093-8.878906-21.777343-3.660157-3.710938-8.21875-6.414063-13.230469-7.84375v-6.417969h4.121094c2.070312.070312 4.085937-.703125 5.570312-2.148438 1.488282-1.449218 2.320313-3.4375 2.308594-5.511718v-69.058594c.039062-16.128906-13-29.2382812-29.128906-29.28125h-201.859375c-7.734375.0234375-15.140625 3.125-20.585938 8.617188-5.441406 5.496093-8.472656 12.929687-8.425781 20.664062v69.058594c-.039062 2.0625.765625 4.050781 2.234375 5.496094 1.46875 1.449218 3.464844 2.230468 5.527344 2.164062h6.238281v6.390625c-5.089844 1.421875-9.757812 4.066406-13.601562 7.699219-6.136719 5.648437-9.640626 13.601562-9.660157 21.945312 0 14.175782 10.617188 26.515625 24.425781 29.875 1.175782 9.386719 3.476563 18.597656 6.851563 27.4375-3.390625 10.386719-21.832031 59.6875-68.753906 67.765625-4.109375.691407-6.996094 4.421875-6.636719 8.574219.355469 4.148438 3.839844 7.332031 8.003906 7.3125h110.371094v16h-45.671875c-45.363281 0-82.328125 37.082031-82.328125 82.441406v46.527344c.0273438 4.4375 3.625 8.023438 8.058594 8.03125h371.882812c4.433594-.007812 8.03125-3.59375 8.058594-8.03125v-46.527344c0-45.359375-36.964844-82.441406-82.328125-82.441406zm-113.117187 35.800781-48.554688-31.859375v-38.640625c31.492188 15.671875 68.507812 15.671875 100 0v38.34375zm-91.519532-138.449219c-2.414062-5.855468-4.28125-11.917968-5.574218-18.117187l75.992187 22.242187c14.722656 4.316407 30.371094 4.316407 45.09375 0l75.996094-22.242187c-1.296875 6.210937-3.171875 12.289063-5.59375 18.15625-5.070313 12.351563-12.476563 23.613281-21.804688 33.171875-5.277343 5.433594-11.144531 10.261719-17.492187 14.398438-32.621094 21.488281-74.914063 21.445312-107.488282-.117188-17.496093-11.566406-31.125-28.109375-39.128906-47.492188zm230.265625 70.648438h-71.300781v-12.246094c5.945312-4.128906 11.472656-8.828125 16.5-14.03125 6.433594-6.582031 12.09375-13.878906 16.867188-21.746094 3.027343 6.574219 6.546874 12.90625 10.53125 18.945313 7.300781 11.269531 16.582031 21.125 27.402343 29.078125zm-18.390625-135.429688c2.800782 2.765626 4.386719 6.53125 4.402344 10.46875.085938 4.859376-2.289062 9.429688-6.3125 12.152344v-24.320312c0 .5 1.277344 1.0625 1.910156 1.699218zm-233.910156-102.289062c-.050781-3.492188 1.292969-6.859375 3.738281-9.351562 2.441407-2.496094 5.78125-3.910157 9.273438-3.929688h201.859375c3.503906.015625 6.855468 1.425781 9.320312 3.914062 2.460938 2.492188 3.832032 5.863282 3.808594 9.367188v60.71875h-228zm216 76.71875v51.199219c0 1.246093-.160156 2.5-.210938 3.746093l-82.667968 24.175782c-11.800782 3.457031-24.339844 3.457031-36.140625 0l-82.753907-24.175782c-.046874-1.25-.226562-2.5-.226562-3.746093v-51.199219zm-225.324219 36.039062c.035157-3.917968 1.707031-7.648437 4.609375-10.28125.828125-.792968 1.738282-1.492187 2.714844-2.089843v24.742187c-4-2.691406-7.324219-7.335937-7.324219-12.371094zm-13.132812 124.960938c10.816406-7.957031 20.097656-17.804688 27.398437-29.074219 4.046875-6.078125 7.621094-12.457031 10.703125-19.078125 8.523438 14.085938 19.355469 26.441406 33.355469 35.914063v12.238281zm-40.542969 114.441406c.058594-36.628906 29.703125-66.324218 66.328125-66.441406h50.933594l50.738281 33.621094v71.378906h-168zm356 38.558594h-172v-71.265625l54.355469-33.734375h51.316406c36.625.117188 66.269531 29.8125 66.328125 66.441406zm0 0"/><path d="m126.5 153.71875c7.59375 7.605469 19.019531 9.886719 28.949219 5.777344 9.929687-4.109375 16.402343-13.800782 16.402343-24.546875 0-4.417969-3.582031-8-8-8-4.417968 0-8 3.582031-8 8 0 4.273437-2.574218 8.128906-6.523437 9.761719-3.949219 1.632812-8.496094.722656-11.511719-2.308594-1.984375-1.96875-3.097656-4.65625-3.085937-7.453125 0-4.417969-3.582031-8-8-8s-8 3.582031-8 8c-.023438 7.042969 2.773437 13.804687 7.769531 18.769531zm0 0"/><path d="m238.070312 161.511719c14.660157-.019531 26.542969-11.898438 26.558594-26.5625 0-4.417969-3.582031-8-8-8-4.417968 0-8 3.582031-8 8 0 4.273437-2.574218 8.125-6.523437 9.753906-3.949219 1.632813-8.488281.722656-11.503907-2.304687-1.988281-1.96875-3.097656-4.65625-3.089843-7.453126 0-4.417968-3.582031-8-8-8s-8 3.582032-8 8c.007812 14.667969 11.894531 26.554688 26.558593 26.5625zm0 0"/><path d="m207 45h-6v-7c0-4.417969-3.582031-8-8-8s-8 3.582031-8 8v7h-5c-4.417969 0-8 3.582031-8 8s3.582031 8 8 8h5v4c0 4.417969 3.582031 8 8 8s8-3.582031 8-8v-4h6c4.417969 0 8-3.582031 8-8s-3.582031-8-8-8zm0 0"/></g></svg>